<mxfile host="Electron" agent="Mozilla/5.0 (Windows NT 10.0; Win64; x64) AppleWebKit/537.36 (KHTML, like Gecko) draw.io/26.0.16 Chrome/132.0.6834.196 Electron/34.2.0 Safari/537.36" version="26.0.16">
  <diagram name="第 1 页" id="2NrgStT2HLPS1t7XE2oN">
    <mxGraphModel dx="829" dy="485" grid="1" gridSize="10" guides="1" tooltips="1" connect="1" arrows="1" fold="1" page="1" pageScale="1" pageWidth="827" pageHeight="1169" math="0" shadow="0">
      <root>
        <mxCell id="0" />
        <mxCell id="1" parent="0" />
        <mxCell id="5ThZHA3h4O9nOg9VEOzU-3" value="" style="edgeStyle=orthogonalEdgeStyle;rounded=0;orthogonalLoop=1;jettySize=auto;html=1;" edge="1" parent="1" source="5ThZHA3h4O9nOg9VEOzU-1" target="5ThZHA3h4O9nOg9VEOzU-2">
          <mxGeometry relative="1" as="geometry" />
        </mxCell>
        <mxCell id="5ThZHA3h4O9nOg9VEOzU-1" value="展示可接取订单" style="rounded=1;whiteSpace=wrap;html=1;" vertex="1" parent="1">
          <mxGeometry x="380" y="50" width="120" height="60" as="geometry" />
        </mxCell>
        <mxCell id="5ThZHA3h4O9nOg9VEOzU-5" value="" style="edgeStyle=orthogonalEdgeStyle;rounded=0;orthogonalLoop=1;jettySize=auto;html=1;" edge="1" parent="1" source="5ThZHA3h4O9nOg9VEOzU-2" target="5ThZHA3h4O9nOg9VEOzU-4">
          <mxGeometry relative="1" as="geometry" />
        </mxCell>
        <mxCell id="5ThZHA3h4O9nOg9VEOzU-2" value="接取订单" style="whiteSpace=wrap;html=1;rounded=1;" vertex="1" parent="1">
          <mxGeometry x="380" y="170" width="120" height="60" as="geometry" />
        </mxCell>
        <mxCell id="5ThZHA3h4O9nOg9VEOzU-11" value="" style="edgeStyle=orthogonalEdgeStyle;rounded=0;orthogonalLoop=1;jettySize=auto;html=1;" edge="1" parent="1" source="5ThZHA3h4O9nOg9VEOzU-4" target="5ThZHA3h4O9nOg9VEOzU-10">
          <mxGeometry relative="1" as="geometry" />
        </mxCell>
        <mxCell id="5ThZHA3h4O9nOg9VEOzU-13" value="" style="edgeStyle=orthogonalEdgeStyle;rounded=0;orthogonalLoop=1;jettySize=auto;html=1;" edge="1" parent="1" source="5ThZHA3h4O9nOg9VEOzU-4" target="5ThZHA3h4O9nOg9VEOzU-12">
          <mxGeometry relative="1" as="geometry" />
        </mxCell>
        <mxCell id="5ThZHA3h4O9nOg9VEOzU-15" value="" style="edgeStyle=orthogonalEdgeStyle;rounded=0;orthogonalLoop=1;jettySize=auto;html=1;" edge="1" parent="1" source="5ThZHA3h4O9nOg9VEOzU-4" target="5ThZHA3h4O9nOg9VEOzU-14">
          <mxGeometry relative="1" as="geometry" />
        </mxCell>
        <mxCell id="5ThZHA3h4O9nOg9VEOzU-4" value="按照预计出餐时间和送达时间自动规划合适路径" style="whiteSpace=wrap;html=1;rounded=1;" vertex="1" parent="1">
          <mxGeometry x="380" y="290" width="120" height="60" as="geometry" />
        </mxCell>
        <mxCell id="5ThZHA3h4O9nOg9VEOzU-22" value="" style="edgeStyle=orthogonalEdgeStyle;rounded=0;orthogonalLoop=1;jettySize=auto;html=1;" edge="1" parent="1" source="5ThZHA3h4O9nOg9VEOzU-8" target="5ThZHA3h4O9nOg9VEOzU-21">
          <mxGeometry relative="1" as="geometry" />
        </mxCell>
        <mxCell id="5ThZHA3h4O9nOg9VEOzU-24" value="" style="edgeStyle=orthogonalEdgeStyle;rounded=0;orthogonalLoop=1;jettySize=auto;html=1;" edge="1" parent="1" source="5ThZHA3h4O9nOg9VEOzU-8" target="5ThZHA3h4O9nOg9VEOzU-23">
          <mxGeometry relative="1" as="geometry" />
        </mxCell>
        <mxCell id="5ThZHA3h4O9nOg9VEOzU-8" value="送达给用户" style="whiteSpace=wrap;html=1;rounded=1;" vertex="1" parent="1">
          <mxGeometry x="380" y="540" width="120" height="60" as="geometry" />
        </mxCell>
        <mxCell id="5ThZHA3h4O9nOg9VEOzU-18" value="" style="edgeStyle=orthogonalEdgeStyle;rounded=0;orthogonalLoop=1;jettySize=auto;html=1;" edge="1" parent="1" source="5ThZHA3h4O9nOg9VEOzU-10" target="5ThZHA3h4O9nOg9VEOzU-8">
          <mxGeometry relative="1" as="geometry">
            <Array as="points">
              <mxPoint x="220" y="490" />
              <mxPoint x="440" y="490" />
            </Array>
          </mxGeometry>
        </mxCell>
        <mxCell id="5ThZHA3h4O9nOg9VEOzU-10" value="前往食堂领取餐品" style="whiteSpace=wrap;html=1;rounded=1;" vertex="1" parent="1">
          <mxGeometry x="160" y="390" width="120" height="60" as="geometry" />
        </mxCell>
        <mxCell id="5ThZHA3h4O9nOg9VEOzU-20" value="" style="edgeStyle=orthogonalEdgeStyle;rounded=0;orthogonalLoop=1;jettySize=auto;html=1;" edge="1" parent="1" source="5ThZHA3h4O9nOg9VEOzU-12" target="5ThZHA3h4O9nOg9VEOzU-8">
          <mxGeometry relative="1" as="geometry">
            <Array as="points">
              <mxPoint x="660" y="490" />
              <mxPoint x="440" y="490" />
            </Array>
          </mxGeometry>
        </mxCell>
        <mxCell id="5ThZHA3h4O9nOg9VEOzU-12" value="前往快递寄存点领取快递" style="whiteSpace=wrap;html=1;rounded=1;" vertex="1" parent="1">
          <mxGeometry x="600" y="390" width="120" height="60" as="geometry" />
        </mxCell>
        <mxCell id="5ThZHA3h4O9nOg9VEOzU-19" value="" style="edgeStyle=orthogonalEdgeStyle;rounded=0;orthogonalLoop=1;jettySize=auto;html=1;" edge="1" parent="1" source="5ThZHA3h4O9nOg9VEOzU-14" target="5ThZHA3h4O9nOg9VEOzU-8">
          <mxGeometry relative="1" as="geometry" />
        </mxCell>
        <mxCell id="5ThZHA3h4O9nOg9VEOzU-14" value="前往超市领取货物" style="whiteSpace=wrap;html=1;rounded=1;" vertex="1" parent="1">
          <mxGeometry x="385" y="390" width="110" height="60" as="geometry" />
        </mxCell>
        <mxCell id="5ThZHA3h4O9nOg9VEOzU-21" value="配送费入账" style="whiteSpace=wrap;html=1;rounded=1;" vertex="1" parent="1">
          <mxGeometry x="190" y="700" width="120" height="60" as="geometry" />
        </mxCell>
        <mxCell id="5ThZHA3h4O9nOg9VEOzU-23" value="扣除部分配送费" style="whiteSpace=wrap;html=1;rounded=1;" vertex="1" parent="1">
          <mxGeometry x="590" y="700" width="120" height="60" as="geometry" />
        </mxCell>
        <mxCell id="5ThZHA3h4O9nOg9VEOzU-25" value="在规定到达时间前送达" style="text;strokeColor=none;align=center;fillColor=none;html=1;verticalAlign=middle;whiteSpace=wrap;rounded=0;" vertex="1" parent="1">
          <mxGeometry x="280" y="530" width="80" height="40" as="geometry" />
        </mxCell>
        <mxCell id="5ThZHA3h4O9nOg9VEOzU-27" value="未在规定到达时间前送达" style="text;strokeColor=none;align=center;fillColor=none;html=1;verticalAlign=middle;whiteSpace=wrap;rounded=0;" vertex="1" parent="1">
          <mxGeometry x="530" y="530" width="80" height="40" as="geometry" />
        </mxCell>
      </root>
    </mxGraphModel>
  </diagram>
</mxfile>
